cover
 
http://shareimage.ro/images/sqsg6wk6sw51wyeufbm5.png

Genre: Animation | Short | Fantasy
Language:English
IMDb:http://www.imdb.com/title/tt1744776/
Source:720p BluRay x264-EbP

Complete name :Legend of the BoneKnapper Dragon 2010 720p BRRip H264 Feel-Free
Format : MPEG-4
Format profile : Base Media / Version 2
Codec ID : mp42
File size : 139 MiB
Duration : 16mn 33s
Overall bit rate : 1 177 Kbps
Video #1
Codec ID : avc1
Codec ID/Info : Advanced Video Coding
Duration : 16mn 33s
Bit rate mode : Variable
Bit rate : 698 Kbps
Width : 1 280 pixels
Height : 720 pixels
Display aspect ratio : 16:9
Frame rate mode : Constant
Frame rate : 23.976 fps
Resolution : 24 bits
Colorimetry : 4:2:0
Scan type : Progressive
Bits/(Pixel*Frame) : 0.032
Stream size : 82.7 MiB (59%)
Audio #2
ID : 2
Format : AAC
Format/Info : Advanced Audio Codec
Format version : Version 4
Format profile : LC
Format settings, SBR : No
Codec ID : 40
Duration : 16mn 33s
Bit rate mode : Constant
Bit rate : 475 Kbps
Nominal bit rate : 480 Kbps
Channel(s) : 6 channels
Channel positions : Front: L C R, Rear: L R, LFE
Sampling rate : 48.0 KHz
Resolution : 16 bits
Stream size : 56.2 MiB (40%)

Plot:
Hiccup and the gang join Gobber on a quest to find a legendary boneclad Dragon.



screens
 
http://rapidhdd.com/images/844954vlcsnap-2010-11-04-20h04m50s18.png 
http://www.rapidhdd.com/images/42342vlcsnap-2010-11-04-20h05m01s122.png 
http://www.rapidhdd.com/images/296730vlcsnap-2010-11-04-20h04m34s102.png